<svg xmlns="http://www.w3.org/2000/svg" xmlns:xlink="http://www.w3.org/1999/xlink" width="5184" viewBox="0 0 5184 2592" height="2592" version="1.0"><defs><g id="m"><path d="M 43.25 -75.625 C 48.550781 -75.625 53.726562 -74.601562 58.78125 -72.5625 C 63.84375 -70.519531 68.203125 -67.671875 71.859375 -64.015625 L 64.4375 -54.75 C 61.707031 -57.695312 58.476562 -60.03125 54.75 -61.75 C 51.019531 -63.46875 47.257812 -64.328125 43.46875 -64.328125 C 35.9375 -64.328125 29.566406 -61.765625 24.359375 -56.640625 C 19.160156 -51.515625 16.5625 -45.257812 16.5625 -37.875 C 16.5625 -30.40625 19.160156 -24.109375 24.359375 -18.984375 C 29.566406 -13.859375 35.9375 -11.296875 43.46875 -11.296875 C 51.28125 -11.296875 58.269531 -14.269531 64.4375 -20.21875 L 71.96875 -11.828125 C 68.09375 -8.023438 63.570312 -5.015625 58.40625 -2.796875 C 53.25 -0.578125 48.050781 0.53125 42.8125 0.53125 C 31.769531 0.53125 22.484375 -3.140625 14.953125 -10.484375 C 7.421875 -17.835938 3.65625 -26.929688 3.65625 -37.765625 C 3.65625 -48.441406 7.472656 -57.421875 15.109375 -64.703125 C 22.753906 -71.984375 32.132812 -75.625 43.25 -75.625 Z M 43.25 -75.625"/></g><g id="n"><path d="M 57.65625 0 L 43.890625 -22.8125 C 43.171875 -22.738281 42.023438 -22.703125 40.453125 -22.703125 L 22.59375 -22.703125 L 22.59375 0 L 9.890625 0 L 9.890625 -75.296875 L 40.453125 -75.296875 C 50.054688 -75.296875 57.507812 -73.054688 62.8125 -68.578125 C 68.125 -64.097656 70.78125 -57.769531 70.78125 -49.59375 C 70.78125 -43.570312 69.4375 -38.476562 66.75 -34.3125 C 64.0625 -30.15625 60.207031 -27.109375 55.1875 -25.171875 L 72.078125 0 Z M 22.59375 -34.109375 L 40.453125 -34.109375 C 52.640625 -34.109375 58.734375 -39.160156 58.734375 -49.265625 C 58.734375 -59.023438 52.640625 -63.90625 40.453125 -63.90625 L 22.59375 -63.90625 Z M 22.59375 -34.109375"/></g><g id="o"><path d="M 15.15625 -64.703125 C 22.832031 -71.984375 32.300781 -75.625 43.5625 -75.625 C 54.820312 -75.625 64.289062 -71.984375 71.96875 -64.703125 C 79.644531 -57.421875 83.484375 -48.398438 83.484375 -37.640625 C 83.484375 -26.890625 79.644531 -17.835938 71.96875 -10.484375 C 64.289062 -3.140625 54.820312 0.53125 43.5625 0.53125 C 32.300781 0.53125 22.832031 -3.140625 15.15625 -10.484375 C 7.488281 -17.835938 3.65625 -26.890625 3.65625 -37.640625 C 3.65625 -48.398438 7.488281 -57.421875 15.15625 -64.703125 Z M 43.671875 -64.21875 C 36.210938 -64.21875 29.828125 -61.65625 24.515625 -56.53125 C 19.210938 -51.40625 16.5625 -45.113281 16.5625 -37.65625 C 16.5625 -30.195312 19.234375 -23.863281 24.578125 -18.65625 C 29.921875 -13.457031 36.285156 -10.859375 43.671875 -10.859375 C 51.054688 -10.859375 57.367188 -13.457031 62.609375 -18.65625 C 67.847656 -23.863281 70.46875 -30.195312 70.46875 -37.65625 C 70.46875 -45.113281 67.847656 -51.40625 62.609375 -56.53125 C 57.367188 -61.65625 51.054688 -64.21875 43.671875 -64.21875 Z M 43.671875 -64.21875"/></g><g id="p"><path d="M 34.640625 -75.84375 C 44.390625 -75.84375 53.175781 -73.257812 61 -68.09375 L 55.71875 -56.90625 C 48.050781 -61.570312 40.703125 -63.90625 33.671875 -63.90625 C 29.867188 -63.90625 26.875 -63.222656 24.6875 -61.859375 C 22.5 -60.492188 21.40625 -58.554688 21.40625 -56.046875 C 21.40625 -53.535156 22.410156 -51.398438 24.421875 -49.640625 C 26.429688 -47.890625 28.941406 -46.597656 31.953125 -45.765625 C 34.960938 -44.941406 38.222656 -43.898438 41.734375 -42.640625 C 45.253906 -41.390625 48.519531 -40.066406 51.53125 -38.671875 C 54.539062 -37.273438 57.03125 -35.085938 59 -32.109375 C 60.976562 -29.128906 61.96875 -25.523438 61.96875 -21.296875 C 61.96875 -14.703125 59.332031 -9.429688 54.0625 -5.484375 C 48.789062 -1.535156 41.957031 0.4375 33.5625 0.4375 C 27.820312 0.4375 22.265625 -0.640625 16.890625 -2.796875 C 11.515625 -4.953125 6.816406 -7.859375 2.796875 -11.515625 L 8.28125 -22.484375 C 12.082031 -18.972656 16.257812 -16.265625 20.8125 -14.359375 C 25.363281 -12.460938 29.6875 -11.515625 33.78125 -11.515625 C 38.226562 -11.515625 41.6875 -12.320312 44.15625 -13.9375 C 46.632812 -15.550781 47.875 -17.789062 47.875 -20.65625 C 47.875 -23.238281 46.867188 -25.40625 44.859375 -27.15625 C 42.847656 -28.914062 40.335938 -30.207031 37.328125 -31.03125 C 34.316406 -31.851562 31.050781 -32.859375 27.53125 -34.046875 C 24.019531 -35.234375 20.757812 -36.488281 17.75 -37.8125 C 14.738281 -39.132812 12.226562 -41.265625 10.21875 -44.203125 C 8.207031 -47.148438 7.203125 -50.703125 7.203125 -54.859375 C 7.203125 -61.242188 9.710938 -66.335938 14.734375 -70.140625 C 19.753906 -73.941406 26.390625 -75.84375 34.640625 -75.84375 Z M 34.640625 -75.84375"/></g><g id="q"><path d="M 33.03125 -28.515625 L 6.5625 -28.515625 L 6.5625 -37 L 33.03125 -37 Z M 33.03125 -28.515625"/></g><g id="r"><path d="M 9.890625 -75.296875 L 39.90625 -75.296875 C 49.375 -75.296875 56.707031 -73.054688 61.90625 -68.578125 C 67.101562 -64.097656 69.703125 -57.769531 69.703125 -49.59375 C 69.703125 -41.0625 67.101562 -34.445312 61.90625 -29.75 C 56.707031 -25.050781 49.375 -22.703125 39.90625 -22.703125 L 22.59375 -22.703125 L 22.59375 0 L 9.890625 0 Z M 22.59375 -63.90625 L 22.59375 -34.109375 L 39.375 -34.109375 C 51.488281 -34.109375 57.546875 -39.160156 57.546875 -49.265625 C 57.546875 -59.023438 51.488281 -63.90625 39.375 -63.90625 Z M 22.59375 -63.90625"/></g><g id="s"><path d="M 22.59375 -11.515625 L 55.1875 -11.515625 L 55.1875 0 L 9.890625 0 L 9.890625 -75.296875 L 22.59375 -75.296875 Z M 22.59375 -11.515625"/></g><g id="t"><path d="M 58.515625 -17 L 20.546875 -17 L 13.34375 0 L 0.109375 0 L 33.34375 -75.296875 L 46.359375 -75.296875 L 79.28125 0 L 65.734375 0 Z M 53.6875 -28.296875 L 39.484375 -61.75 L 25.28125 -28.296875 Z M 53.6875 -28.296875"/></g><g id="u"><path d="M 61.3125 -63.90625 L 37.4375 -63.90625 L 37.4375 0 L 24.75 0 L 24.75 -63.90625 L 0.96875 -63.90625 L 0.96875 -75.296875 L 61.3125 -75.296875 Z M 61.3125 -63.90625"/></g><g id="v"><path d="M 60.34375 -63.90625 L 22.59375 -63.90625 L 22.59375 -42.171875 L 56.796875 -42.171875 L 56.796875 -30.875 L 22.59375 -30.875 L 22.59375 0 L 9.890625 0 L 9.890625 -75.296875 L 60.453125 -75.296875 Z M 60.34375 -63.90625"/></g><g id="w"><path d="M 89.5 0 L 77.78125 0 L 77.671875 -56.265625 L 53.890625 -7.859375 L 45.609375 -7.859375 L 21.84375 -56.265625 L 21.84375 0 L 9.890625 0 L 9.890625 -75.296875 L 24.953125 -75.296875 L 49.8125 -25.28125 L 74.546875 -75.296875 L 89.5 -75.296875 Z M 89.5 0"/></g><g id="y"><path d="M 63.6875 -63.90625 L 22.59375 -63.90625 L 22.59375 -43.5625 L 59.390625 -43.5625 L 59.390625 -32.171875 L 22.59375 -32.171875 L 22.59375 -11.40625 L 64.984375 -11.40625 L 64.984375 0 L 9.890625 0 L 9.890625 -75.296875 L 63.6875 -75.296875 Z M 63.6875 -63.90625"/></g><g id="z"><path d="M 22.59375 0 L 9.890625 0 L 9.890625 -75.296875 L 22.59375 -75.296875 Z M 22.59375 0"/></g><g id="A"><path d="M 75.203125 0 L 62.71875 0 L 22.59375 -54 L 22.59375 0 L 9.890625 0 L 9.890625 -75.296875 L 22.375 -75.296875 L 62.71875 -21.1875 L 62.71875 -75.296875 L 75.203125 -75.296875 Z M 75.203125 0"/></g><g id="B"><path d="M 9.890625 -75.296875 L 42.59375 -75.296875 C 50.414062 -75.296875 56.582031 -73.628906 61.09375 -70.296875 C 65.613281 -66.960938 67.875 -62.359375 67.875 -56.484375 C 67.875 -52.242188 66.691406 -48.632812 64.328125 -45.65625 C 61.960938 -42.6875 58.738281 -40.703125 54.65625 -39.703125 C 59.675781 -38.835938 63.617188 -36.71875 66.484375 -33.34375 C 69.347656 -29.976562 70.78125 -25.75 70.78125 -20.65625 C 70.78125 -14.195312 68.34375 -9.140625 63.46875 -5.484375 C 58.59375 -1.828125 51.890625 0 43.359375 0 L 9.890625 0 Z M 22.59375 -64.015625 L 22.59375 -44.109375 L 41.953125 -44.109375 C 45.972656 -44.109375 49.128906 -45.003906 51.421875 -46.796875 C 53.710938 -48.585938 54.859375 -51.0625 54.859375 -54.21875 C 54.859375 -57.375 53.726562 -59.796875 51.46875 -61.484375 C 49.21875 -63.171875 46.046875 -64.015625 41.953125 -64.015625 Z M 22.59375 -32.921875 L 22.59375 -11.296875 L 41.953125 -11.296875 C 46.972656 -11.296875 50.863281 -12.242188 53.625 -14.140625 C 56.382812 -16.046875 57.765625 -18.753906 57.765625 -22.265625 C 57.765625 -25.566406 56.363281 -28.164062 53.5625 -30.0625 C 50.769531 -31.96875 46.898438 -32.921875 41.953125 -32.921875 Z M 22.59375 -32.921875"/></g><g id="C"><path d="M 40.765625 -25.0625 L 40.765625 0 L 28.1875 0 L 28.1875 -24.640625 L 0.109375 -75.296875 L 12.90625 -75.296875 L 34.421875 -38.625 L 55.515625 -75.296875 L 68.421875 -75.296875 Z M 40.765625 -25.0625"/></g><g id="b"><path d="M 251.59375 -365.957031 C 251.59375 -418.394531 223.144531 -446.289062 171.261719 -446.289062 L 108.78125 -446.289062 C 56.34375 -446.289062 27.894531 -418.394531 27.894531 -365.957031 L 27.894531 -80.332031 C 27.894531 -27.894531 56.34375 0 108.78125 0 L 171.261719 0 C 223.144531 0 251.59375 -27.894531 251.59375 -80.332031 L 251.59375 -140.582031 C 251.59375 -146.160156 248.246094 -149.507812 242.667969 -149.507812 L 186.882812 -149.507812 C 180.746094 -149.507812 177.957031 -146.160156 177.957031 -140.582031 L 177.957031 -95.953125 C 177.957031 -80.890625 170.148438 -73.636719 155.644531 -73.636719 L 126.632812 -73.636719 C 112.128906 -73.636719 104.320312 -80.890625 104.320312 -95.953125 L 104.320312 -350.335938 C 104.320312 -364.839844 111.570312 -372.648438 126.632812 -372.648438 L 155.644531 -372.648438 C 170.148438 -372.648438 177.957031 -364.839844 177.957031 -350.335938 L 177.957031 -305.707031 C 177.957031 -300.128906 180.746094 -296.78125 186.882812 -296.78125 L 242.667969 -296.78125 C 248.246094 -296.78125 251.59375 -300.128906 251.59375 -305.707031 Z M 251.59375 -365.957031"/></g><g id="c"><path d="M 27.894531 -8.925781 C 27.894531 -3.347656 31.238281 0 36.820312 0 L 94.835938 0 C 100.972656 0 103.761719 -3.347656 103.761719 -8.925781 L 103.761719 -149.507812 L 170.707031 -149.507812 C 223.144531 -149.507812 251.035156 -177.957031 251.035156 -229.839844 L 251.035156 -365.957031 C 251.035156 -418.394531 223.144531 -446.289062 170.707031 -446.289062 L 36.820312 -446.289062 C 31.238281 -446.289062 27.894531 -442.941406 27.894531 -437.363281 Z M 103.761719 -223.144531 L 103.761719 -372.648438 L 152.855469 -372.648438 C 167.914062 -372.648438 175.167969 -364.839844 175.167969 -350.335938 L 175.167969 -245.457031 C 175.167969 -231.511719 167.914062 -223.144531 152.855469 -223.144531 Z M 103.761719 -223.144531"/></g><g id="d"><path d="M 27.894531 -175.167969 C 27.894531 -167.914062 31.796875 -164.011719 39.050781 -164.011719 L 127.191406 -164.011719 C 134.445312 -164.011719 138.347656 -167.914062 138.347656 -175.167969 L 138.347656 -226.492188 C 138.347656 -233.742188 134.445312 -237.648438 127.191406 -237.648438 L 39.050781 -237.648438 C 31.796875 -237.648438 27.894531 -233.742188 27.894531 -226.492188 Z M 27.894531 -175.167969"/></g><g id="e"><path d="M 25.660156 -446.289062 C 20.082031 -446.289062 16.734375 -442.941406 16.734375 -437.363281 L 16.734375 -381.574219 C 16.734375 -375.996094 20.082031 -372.648438 25.660156 -372.648438 L 90.375 -372.648438 L 90.375 -8.925781 C 90.375 -2.789062 93.71875 0 99.300781 0 L 157.316406 0 C 163.453125 0 166.242188 -2.789062 166.242188 -8.925781 L 166.242188 -372.648438 L 230.953125 -372.648438 C 237.089844 -372.648438 239.878906 -375.996094 239.878906 -381.574219 L 239.878906 -437.363281 C 239.878906 -442.941406 237.089844 -446.289062 230.953125 -446.289062 Z M 25.660156 -446.289062"/></g><g id="f"><path d="M 250.480469 -437.363281 C 250.480469 -442.941406 248.246094 -446.289062 241.554688 -446.289062 L 36.261719 -446.289062 C 31.238281 -446.289062 27.894531 -442.941406 27.894531 -437.363281 L 27.894531 -8.925781 C 27.894531 -3.347656 31.238281 0 36.261719 0 L 241.554688 0 C 248.246094 0 250.480469 -3.347656 250.480469 -8.925781 L 250.480469 -64.710938 C 250.480469 -70.847656 248.246094 -73.636719 241.554688 -73.636719 L 102.089844 -73.636719 L 102.089844 -186.324219 L 208.640625 -186.324219 C 214.21875 -186.324219 217.566406 -189.671875 217.566406 -195.808594 L 217.566406 -251.035156 C 217.566406 -257.171875 214.21875 -260.519531 208.640625 -260.519531 L 102.089844 -260.519531 L 102.089844 -372.09375 L 241.554688 -372.09375 C 248.246094 -372.09375 250.480469 -375.996094 250.480469 -381.574219 Z M 250.480469 -437.363281"/></g><g id="g"><path d="M 257.171875 -365.957031 C 257.171875 -418.394531 229.28125 -446.289062 176.839844 -446.289062 L 36.820312 -446.289062 C 31.238281 -446.289062 27.894531 -442.941406 27.894531 -437.363281 L 27.894531 -8.925781 C 27.894531 -3.347656 31.238281 0 36.820312 0 L 94.835938 0 C 100.414062 0 103.761719 -3.347656 103.761719 -8.925781 L 103.761719 -149.507812 L 142.253906 -149.507812 L 179.628906 -7.808594 C 180.746094 -2.789062 183.535156 0 189.113281 0 L 247.132812 0 C 253.269531 0 256.617188 -3.347656 254.941406 -10.042969 L 216.449219 -156.199219 C 243.226562 -167.914062 257.171875 -192.460938 257.171875 -229.839844 Z M 103.761719 -223.144531 L 103.761719 -372.648438 L 158.988281 -372.648438 C 173.496094 -372.648438 181.304688 -364.839844 181.304688 -350.335938 L 181.304688 -245.457031 C 181.304688 -230.953125 173.496094 -223.144531 158.988281 -223.144531 Z M 103.761719 -223.144531"/></g><g id="h"><path d="M 261.078125 -446.289062 C 254.382812 -446.289062 250.480469 -442.941406 248.804688 -436.246094 L 186.882812 -158.433594 L 124.960938 -436.246094 C 123.285156 -442.941406 119.382812 -446.289062 112.6875 -446.289062 L 39.050781 -446.289062 C 31.796875 -446.289062 27.894531 -442.382812 27.894531 -435.128906 L 27.894531 -11.15625 C 27.894531 -3.90625 31.796875 0 39.050781 0 L 90.375 0 C 97.625 0 101.53125 -3.90625 101.53125 -11.15625 L 101.53125 -262.195312 L 105.433594 -262.195312 L 160.664062 -10.042969 C 162.335938 -3.347656 166.242188 0 172.9375 0 L 200.273438 0 C 206.964844 0 210.871094 -3.347656 212.542969 -10.042969 L 267.773438 -262.195312 L 271.675781 -262.195312 L 271.675781 -11.15625 C 271.675781 -3.90625 275.582031 0 282.835938 0 L 334.714844 0 C 341.96875 0 345.875 -3.90625 345.875 -11.15625 L 345.875 -435.128906 C 345.875 -442.382812 341.96875 -446.289062 334.714844 -446.289062 Z M 261.078125 -446.289062"/></g><g id="i"><path d="M 36.820312 -446.289062 C 30.683594 -446.289062 27.894531 -442.941406 27.894531 -437.363281 L 27.894531 -8.925781 C 27.894531 -3.347656 30.683594 0 36.820312 0 L 94.835938 0 C 100.414062 0 103.761719 -3.347656 103.761719 -8.925781 L 103.761719 -437.363281 C 103.761719 -442.941406 100.414062 -446.289062 94.835938 -446.289062 Z M 36.820312 -446.289062"/></g><g id="j"><path d="M 199.15625 -446.289062 C 193.019531 -446.289062 190.230469 -442.941406 190.230469 -437.363281 L 190.230469 -201.945312 L 186.882812 -201.945312 L 102.089844 -439.035156 C 100.414062 -444.054688 97.066406 -446.289062 92.046875 -446.289062 L 36.820312 -446.289062 C 31.238281 -446.289062 27.894531 -442.941406 27.894531 -437.363281 L 27.894531 -8.925781 C 27.894531 -3.347656 31.238281 0 36.820312 0 L 94.835938 0 C 100.972656 0 103.761719 -3.347656 103.761719 -8.925781 L 103.761719 -245.457031 L 106.550781 -245.457031 L 191.902344 -7.253906 C 193.578125 -2.230469 196.925781 0 201.945312 0 L 257.171875 0 C 262.75 0 266.097656 -3.347656 266.097656 -8.925781 L 266.097656 -437.363281 C 266.097656 -442.941406 262.75 -446.289062 257.171875 -446.289062 Z M 199.15625 -446.289062"/></g><g id="k"><path d="M 296.78125 0 C 303.476562 0 305.707031 -3.347656 304.589844 -9.484375 L 211.988281 -438.476562 C 210.871094 -444.054688 207.523438 -446.289062 202.503906 -446.289062 L 124.960938 -446.289062 C 119.941406 -446.289062 116.59375 -444.054688 115.476562 -438.476562 L 22.871094 -9.484375 C 21.199219 -3.347656 23.988281 0 30.125 0 L 89.816406 0 C 94.835938 0 97.625 -2.789062 98.742188 -7.808594 L 113.804688 -89.257812 L 213.101562 -89.257812 L 228.722656 -7.808594 C 229.839844 -2.789062 232.628906 0 237.648438 0 Z M 199.15625 -153.96875 L 127.75 -153.96875 L 163.453125 -348.664062 Z M 199.15625 -153.96875"/></g><g id="l"><path d="M 103.761719 -73.636719 L 236.53125 -73.636719 C 242.667969 -73.636719 245.457031 -70.289062 245.457031 -64.710938 L 245.457031 -8.925781 C 245.457031 -2.789062 242.667969 0 236.53125 0 L 36.820312 0 C 31.238281 0 27.894531 -2.789062 27.894531 -8.925781 L 27.894531 -437.363281 C 27.894531 -442.941406 31.238281 -446.289062 36.820312 -446.289062 L 94.835938 -446.289062 C 100.972656 -446.289062 103.761719 -442.941406 103.761719 -437.363281 Z M 103.761719 -73.636719"/></g><clipPath id="a"><path d="M 260.101562 754.085938 L 1427 754.085938 L 1427 1836.667969 L 260.101562 1836.667969 Z M 260.101562 754.085938"/></clipPath></defs><g clip-path="url(#a)"><path fill="#004AAD" d="M 1343.441406 754.085938 L 344.058594 754.085938 C 298.085938 754.085938 260.777344 791.394531 260.777344 837.363281 L 260.777344 1753.394531 C 260.777344 1799.363281 298.085938 1836.667969 344.058594 1836.667969 L 1343.441406 1836.667969 C 1389.414062 1836.667969 1426.722656 1799.363281 1426.722656 1753.394531 L 1426.722656 837.363281 C 1426.722656 791.394531 1389.414062 754.085938 1343.441406 754.085938 Z M 1093.59375 837.363281 L 1260.160156 837.363281 L 1260.160156 920.636719 L 1093.59375 920.636719 Z M 1343.441406 1753.394531 L 344.058594 1753.394531 L 344.058594 1003.914062 L 1343.441406 1003.914062 Z M 1343.441406 1753.394531"/></g><path fill="#004AAD" d="M 554.761719 1630.980469 L 807.1875 1378.652344 L 554.761719 1126.328125 L 466.484375 1214.601562 L 630.464844 1378.652344 L 466.484375 1542.707031 Z M 554.761719 1630.980469"/><path fill="#004AAD" d="M 843.75 1420.292969 L 1260.160156 1420.292969 L 1260.160156 1586.84375 L 843.75 1586.84375 Z M 843.75 1420.292969"/><g fill="#5271FF"><use x="1562.212" y="1454.415" xmlns:xlink="http://www.w3.org/1999/xlink" xlink:href="#b" xlink:type="simple" xlink:actuate="onLoad" xlink:show="embed"/></g><g fill="#5271FF"><use x="1852.857" y="1454.415" xmlns:xlink="http://www.w3.org/1999/xlink" xlink:href="#c" xlink:type="simple" xlink:actuate="onLoad" xlink:show="embed"/></g><g fill="#5271FF"><use x="2142.944" y="1454.415" xmlns:xlink="http://www.w3.org/1999/xlink" xlink:href="#c" xlink:type="simple" xlink:actuate="onLoad" xlink:show="embed"/></g><g fill="#5271FF"><use x="2433.03" y="1454.415" xmlns:xlink="http://www.w3.org/1999/xlink" xlink:href="#d" xlink:type="simple" xlink:actuate="onLoad" xlink:show="embed"/></g><g fill="#5271FF"><use x="2610.429" y="1454.415" xmlns:xlink="http://www.w3.org/1999/xlink" xlink:href="#e" xlink:type="simple" xlink:actuate="onLoad" xlink:show="embed"/></g><g fill="#5271FF"><use x="2878.202" y="1454.415" xmlns:xlink="http://www.w3.org/1999/xlink" xlink:href="#f" xlink:type="simple" xlink:actuate="onLoad" xlink:show="embed"/></g><g fill="#5271FF"><use x="3167.73" y="1454.415" xmlns:xlink="http://www.w3.org/1999/xlink" xlink:href="#g" xlink:type="simple" xlink:actuate="onLoad" xlink:show="embed"/></g><g fill="#5271FF"><use x="3463.954" y="1454.415" xmlns:xlink="http://www.w3.org/1999/xlink" xlink:href="#h" xlink:type="simple" xlink:actuate="onLoad" xlink:show="embed"/></g><g fill="#5271FF"><use x="3848.876" y="1454.415" xmlns:xlink="http://www.w3.org/1999/xlink" xlink:href="#i" xlink:type="simple" xlink:actuate="onLoad" xlink:show="embed"/></g><g fill="#5271FF"><use x="3991.688" y="1454.415" xmlns:xlink="http://www.w3.org/1999/xlink" xlink:href="#j" xlink:type="simple" xlink:actuate="onLoad" xlink:show="embed"/></g><g fill="#5271FF"><use x="4296.837" y="1454.415" xmlns:xlink="http://www.w3.org/1999/xlink" xlink:href="#k" xlink:type="simple" xlink:actuate="onLoad" xlink:show="embed"/></g><g fill="#5271FF"><use x="4634.9" y="1454.415" xmlns:xlink="http://www.w3.org/1999/xlink" xlink:href="#l" xlink:type="simple" xlink:actuate="onLoad" xlink:show="embed"/></g><g fill="#38B6FF"><use x="1562.212" y="1673.907" xmlns:xlink="http://www.w3.org/1999/xlink" xlink:href="#m" xlink:type="simple" xlink:actuate="onLoad" xlink:show="embed"/></g><g fill="#38B6FF"><use x="1650.109" y="1673.907" xmlns:xlink="http://www.w3.org/1999/xlink" xlink:href="#n" xlink:type="simple" xlink:actuate="onLoad" xlink:show="embed"/></g><g fill="#38B6FF"><use x="1740.802" y="1673.907" xmlns:xlink="http://www.w3.org/1999/xlink" xlink:href="#o" xlink:type="simple" xlink:actuate="onLoad" xlink:show="embed"/></g><g fill="#38B6FF"><use x="1840.855" y="1673.907" xmlns:xlink="http://www.w3.org/1999/xlink" xlink:href="#p" xlink:type="simple" xlink:actuate="onLoad" xlink:show="embed"/></g><g fill="#38B6FF"><use x="1920.683" y="1673.907" xmlns:xlink="http://www.w3.org/1999/xlink" xlink:href="#p" xlink:type="simple" xlink:actuate="onLoad" xlink:show="embed"/></g><g fill="#38B6FF"><use x="2000.51" y="1673.907" xmlns:xlink="http://www.w3.org/1999/xlink" xlink:href="#q" xlink:type="simple" xlink:actuate="onLoad" xlink:show="embed"/></g><g fill="#38B6FF"><use x="2053.012" y="1673.907" xmlns:xlink="http://www.w3.org/1999/xlink" xlink:href="#r" xlink:type="simple" xlink:actuate="onLoad" xlink:show="embed"/></g><g fill="#38B6FF"><use x="2138.326" y="1673.907" xmlns:xlink="http://www.w3.org/1999/xlink" xlink:href="#s" xlink:type="simple" xlink:actuate="onLoad" xlink:show="embed"/></g><g fill="#38B6FF"><use x="2208.686" y="1673.907" xmlns:xlink="http://www.w3.org/1999/xlink" xlink:href="#t" xlink:type="simple" xlink:actuate="onLoad" xlink:show="embed"/></g><g fill="#38B6FF"><use x="2300.993" y="1673.907" xmlns:xlink="http://www.w3.org/1999/xlink" xlink:href="#u" xlink:type="simple" xlink:actuate="onLoad" xlink:show="embed"/></g><g fill="#38B6FF"><use x="2376.195" y="1673.907" xmlns:xlink="http://www.w3.org/1999/xlink" xlink:href="#v" xlink:type="simple" xlink:actuate="onLoad" xlink:show="embed"/></g><g fill="#38B6FF"><use x="2450.966" y="1673.907" xmlns:xlink="http://www.w3.org/1999/xlink" xlink:href="#o" xlink:type="simple" xlink:actuate="onLoad" xlink:show="embed"/></g><g fill="#38B6FF"><use x="2551.019" y="1673.907" xmlns:xlink="http://www.w3.org/1999/xlink" xlink:href="#n" xlink:type="simple" xlink:actuate="onLoad" xlink:show="embed"/></g><g fill="#38B6FF"><use x="2641.713" y="1673.907" xmlns:xlink="http://www.w3.org/1999/xlink" xlink:href="#w" xlink:type="simple" xlink:actuate="onLoad" xlink:show="embed"/></g><g fill="#38B6FF"><use x="2754.138" y="1673.907" xmlns:xlink="http://www.w3.org/1999/xlink" xlink:href="#x" xlink:type="simple" xlink:actuate="onLoad" xlink:show="embed"/></g><g fill="#38B6FF"><use x="2794.805" y="1673.907" xmlns:xlink="http://www.w3.org/1999/xlink" xlink:href="#u" xlink:type="simple" xlink:actuate="onLoad" xlink:show="embed"/></g><g fill="#38B6FF"><use x="2870.007" y="1673.907" xmlns:xlink="http://www.w3.org/1999/xlink" xlink:href="#y" xlink:type="simple" xlink:actuate="onLoad" xlink:show="embed"/></g><g fill="#38B6FF"><use x="2953.492" y="1673.907" xmlns:xlink="http://www.w3.org/1999/xlink" xlink:href="#n" xlink:type="simple" xlink:actuate="onLoad" xlink:show="embed"/></g><g fill="#38B6FF"><use x="3044.186" y="1673.907" xmlns:xlink="http://www.w3.org/1999/xlink" xlink:href="#w" xlink:type="simple" xlink:actuate="onLoad" xlink:show="embed"/></g><g fill="#38B6FF"><use x="3156.611" y="1673.907" xmlns:xlink="http://www.w3.org/1999/xlink" xlink:href="#z" xlink:type="simple" xlink:actuate="onLoad" xlink:show="embed"/></g><g fill="#38B6FF"><use x="3202.012" y="1673.907" xmlns:xlink="http://www.w3.org/1999/xlink" xlink:href="#A" xlink:type="simple" xlink:actuate="onLoad" xlink:show="embed"/></g><g fill="#38B6FF"><use x="3300.129" y="1673.907" xmlns:xlink="http://www.w3.org/1999/xlink" xlink:href="#t" xlink:type="simple" xlink:actuate="onLoad" xlink:show="embed"/></g><g fill="#38B6FF"><use x="3392.436" y="1673.907" xmlns:xlink="http://www.w3.org/1999/xlink" xlink:href="#s" xlink:type="simple" xlink:actuate="onLoad" xlink:show="embed"/></g><g fill="#38B6FF"><use x="3462.796" y="1673.907" xmlns:xlink="http://www.w3.org/1999/xlink" xlink:href="#x" xlink:type="simple" xlink:actuate="onLoad" xlink:show="embed"/></g><g fill="#38B6FF"><use x="3503.463" y="1673.907" xmlns:xlink="http://www.w3.org/1999/xlink" xlink:href="#s" xlink:type="simple" xlink:actuate="onLoad" xlink:show="embed"/></g><g fill="#38B6FF"><use x="3573.823" y="1673.907" xmlns:xlink="http://www.w3.org/1999/xlink" xlink:href="#z" xlink:type="simple" xlink:actuate="onLoad" xlink:show="embed"/></g><g fill="#38B6FF"><use x="3619.224" y="1673.907" xmlns:xlink="http://www.w3.org/1999/xlink" xlink:href="#B" xlink:type="simple" xlink:actuate="onLoad" xlink:show="embed"/></g><g fill="#38B6FF"><use x="3708.089" y="1673.907" xmlns:xlink="http://www.w3.org/1999/xlink" xlink:href="#n" xlink:type="simple" xlink:actuate="onLoad" xlink:show="embed"/></g><g fill="#38B6FF"><use x="3798.782" y="1673.907" xmlns:xlink="http://www.w3.org/1999/xlink" xlink:href="#t" xlink:type="simple" xlink:actuate="onLoad" xlink:show="embed"/></g><g fill="#38B6FF"><use x="3891.089" y="1673.907" xmlns:xlink="http://www.w3.org/1999/xlink" xlink:href="#n" xlink:type="simple" xlink:actuate="onLoad" xlink:show="embed"/></g><g fill="#38B6FF"><use x="3981.783" y="1673.907" xmlns:xlink="http://www.w3.org/1999/xlink" xlink:href="#C" xlink:type="simple" xlink:actuate="onLoad" xlink:show="embed"/></g></svg>
